<svg width="71" height="79" viewBox="0 0 71 79" fill="none" xmlns="http://www.w3.org/2000/svg">
<path fill-rule="evenodd" clip-rule="evenodd" d="M35.8421 0C55.621 0 43.3124 13.2122 43.3124 29.4807C43.3124 45.7492 55.621 58.9613 35.8421 58.9613C16.0631 58.9613 0 45.7492 0 29.4807C0 13.2122 16.0631 0 35.8421 0Z" fill="#6852EE"/>
<path fill-rule="evenodd" clip-rule="evenodd" d="M34.7093 78.8979C15.0952 78.8979 27.3012 65.6857 27.3012 49.4172C27.3012 33.1487 15.0952 19.9365 34.7093 19.9365C54.3234 19.9365 70.2527 33.1487 70.2527 49.4172C70.2527 65.6857 54.3234 78.8979 34.7093 78.8979Z" fill="#50D68E"/>
<path fill-rule="evenodd" clip-rule="evenodd" d="M26.0724 57.8976C26.7087 54.9855 27.2077 51.8668 27.2077 48.6242C27.2077 32.7933 15.3059 19.9365 34.4311 19.9365C37.6748 19.9365 40.8061 20.3083 43.7878 21.0002C43.1516 23.9123 42.6525 27.031 42.6525 30.2736C42.6525 46.1045 54.5543 58.9613 35.4291 58.9613C32.198 58.9613 29.0541 58.5895 26.0724 57.8976Z" fill="#000C36"/>
</svg>
