<svg width="1440" height="500" viewBox="0 0 1440 500" fill="none" xmlns="http://www.w3.org/2000/svg">
<g clip-path="url(#clip0_46_2)">
<rect x="120" width="1320" height="500" fill="#000C36"/>
<path fill-rule="evenodd" clip-rule="evenodd" d="M59.7542 -90C426.038 -90 198.096 117.491 198.096 372.98C198.096 628.469 426.038 835.96 59.7542 835.96C-306.529 835.96 -604 628.469 -604 372.98C-604 117.491 -306.529 -90 59.7542 -90Z" fill="#50D68E"/>
<path fill-rule="evenodd" clip-rule="evenodd" d="M38.777 1149.05C-324.454 1149.05 -98.412 941.564 -98.412 686.075C-98.412 430.586 -324.454 223.094 38.777 223.094C402.008 223.094 697 430.586 697 686.075C697 941.564 402.008 1149.05 38.777 1149.05Z" fill="#0031E1"/>
<path fill-rule="evenodd" clip-rule="evenodd" d="M-118.654 820.162C-106.871 774.428 -97.6298 725.45 -97.6298 674.527C-97.6298 425.91 -318.818 222.5 35.3581 222.5C95.4271 222.5 160.498 228.04 215.715 238.905C203.932 284.639 188.391 335.415 188.391 386.339C188.391 634.956 408.798 836.866 54.622 836.866C-5.21595 836.866 -63.4367 831.028 -118.654 820.162Z" fill="#F9CD77"/>
<path fill-rule="evenodd" clip-rule="evenodd" d="M972.363 -395.572C1396.93 -395.572 1132.72 -155.067 1132.72 141.072C1132.72 437.212 1396.93 677.717 972.363 677.717C547.801 677.717 203 437.212 203 141.072C203 -155.067 547.801 -395.572 972.363 -395.572Z" fill="#6852EE"/>
<path fill-rule="evenodd" clip-rule="evenodd" d="M948.048 1040.63C527.024 1040.63 789.031 800.122 789.031 503.983C789.031 207.843 527.024 -32.6617 948.048 -32.6617C1369.07 -32.6617 1711 207.843 1711 503.983C1711 800.122 1369.07 1040.63 948.048 1040.63Z" fill="#0031E1"/>
<path fill-rule="evenodd" clip-rule="evenodd" d="M763.025 659.641C776.762 606.639 786.5 552.016 786.5 493C786.5 204.873 529.662 -33 942.58 -33C1012.61 -33 1088.47 -26.58 1152.85 -13.9874C1139.11 39.0144 1120.99 97.8598 1120.99 156.876C1120.99 445.003 1377.96 679 965.039 679C895.277 679 827.4 672.234 763.025 659.641Z" fill="#000C36"/>
<path fill-rule="evenodd" clip-rule="evenodd" d="M1446.37 -102.764C1203.32 -234.527 1255.69 29.8814 1133.92 254.489C1012.16 479.097 762.019 579.511 1005.07 711.273C1248.13 843.036 1544.41 767.634 1666.17 543.026C1787.93 318.419 1689.43 28.9985 1446.37 -102.764Z" fill="#EE6452"/>
<path fill-rule="evenodd" clip-rule="evenodd" d="M869.777 994.07C1110.81 1124.73 1059.7 861.009 1181.46 636.402C1303.22 411.794 1552.11 310.697 1311.08 180.032C1070.05 49.3672 775.412 125.661 653.65 350.269C531.887 574.877 628.748 863.405 869.777 994.07Z" fill="#50D68E"/>
<path fill-rule="evenodd" clip-rule="evenodd" d="M1130.99 761.563C1144.97 717.119 1167.73 672.768 1192 628C1310.49 409.434 1548.65 308.147 1313.63 180.739C1273.77 159.131 1227.95 140.593 1186.13 130.282C1172.15 174.727 1158.27 224.956 1134 269.724C1015.51 488.29 773.027 586.508 1008.05 713.916C1047.75 735.441 1089.17 751.252 1130.99 761.563Z" fill="#C4D0FA"/>
</g>
<defs>
<clipPath id="clip0_46_2">
<rect width="1440" height="500" fill="white"/>
</clipPath>
</defs>
</svg>
